<svg xmlns="http://www.w3.org/2000/svg" viewBox="0 0 200 200" width="200" height="200"><g fill="none" stroke="#3B4A3F" stroke-width="1.4" stroke-linecap="round" stroke-linejoin="round"><circle cx="100" cy="104" r="74" class="sw" pathLength="1"></circle><line x1="100" y1="104" x2="100" y2="30" class="sw" pathLength="1"></line><line x1="100" y1="104" x2="152.3259018078045" y2="51.67409819219548" class="sw" pathLength="1"></line><line x1="100" y1="104" x2="174" y2="104" class="sw" pathLength="1"></line><line x1="100" y1="104" x2="152.3259018078045" y2="156.3259018078045" class="sw" pathLength="1"></line><line x1="100" y1="104" x2="100.00000000000001" y2="178" class="sw" pathLength="1"></line><line x1="100" y1="104" x2="47.67409819219549" y2="156.32590180780454" class="sw" pathLength="1"></line><line x1="100" y1="104" x2="26" y2="104.00000000000001" class="sw" pathLength="1"></line><line x1="100" y1="104" x2="47.67409819219547" y2="51.674098192195494" class="sw" pathLength="1"></line><line x1="100" y1="30" x2="100" y2="42" class="sw" pathLength="1"></line><line x1="119.15260933758654" y1="32.52148885460895" x2="117.5996950669714" y2="38.31704381234336" class="sw" pathLength="1"></line><line x1="137" y1="39.914120119951534" x2="134" y2="45.110272542658166" class="sw" pathLength="1"></line><line x1="152.3259018078045" y1="51.67409819219548" x2="143.84062043356596" y2="60.15937956643405" class="sw" pathLength="1"></line><line x1="164.08587988004845" y1="67" x2="158.88972745734182" y2="70" class="sw" pathLength="1"></line><line x1="171.47851114539105" y1="84.84739066241346" x2="165.68295618765666" y2="86.4003049330286" class="sw" pathLength="1"></line><line x1="174" y1="104" x2="162" y2="104" class="sw" pathLength="1"></line><line x1="171.47851114539105" y1="123.15260933758654" x2="165.68295618765666" y2="121.59969506697142" class="sw" pathLength="1"></line><line x1="164.08587988004848" y1="141" x2="158.88972745734185" y2="138" class="sw" pathLength="1"></line><line x1="152.3259018078045" y1="156.3259018078045" x2="143.84062043356596" y2="147.84062043356596" class="sw" pathLength="1"></line><line x1="137" y1="168.08587988004848" x2="134" y2="162.88972745734185" class="sw" pathLength="1"></line><line x1="119.15260933758655" y1="175.47851114539105" x2="117.59969506697144" y2="169.68295618765666" class="sw" pathLength="1"></line><line x1="100.00000000000001" y1="178" x2="100.00000000000001" y2="166" class="sw" pathLength="1"></line><line x1="80.84739066241349" y1="175.47851114539105" x2="82.40030493302862" y2="169.68295618765666" class="sw" pathLength="1"></line><line x1="62.99999999999999" y1="168.08587988004845" x2="66" y2="162.88972745734182" class="sw" pathLength="1"></line><line x1="47.67409819219549" y1="156.32590180780454" x2="56.159379566434055" y2="147.84062043356596" class="sw" pathLength="1"></line><line x1="35.91412011995156" y1="141.00000000000003" x2="41.110272542658194" y2="138.00000000000003" class="sw" pathLength="1"></line><line x1="28.521488854608947" y1="123.15260933758653" x2="34.31704381234336" y2="121.5996950669714" class="sw" pathLength="1"></line><line x1="26" y1="104.00000000000001" x2="38" y2="104.00000000000001" class="sw" pathLength="1"></line><line x1="28.521488854608947" y1="84.84739066241343" x2="34.31704381234336" y2="86.40030493302856" class="sw" pathLength="1"></line><line x1="35.91412011995155" y1="67" x2="41.11027254265817" y2="70" class="sw" pathLength="1"></line><line x1="47.67409819219547" y1="51.674098192195494" x2="56.15937956643404" y2="60.15937956643406" class="sw" pathLength="1"></line><line x1="62.999999999999964" y1="39.91412011995156" x2="65.99999999999997" y2="45.110272542658194" class="sw" pathLength="1"></line><line x1="80.84739066241347" y1="32.52148885460895" x2="82.4003049330286" y2="38.31704381234336" class="sw" pathLength="1"></line><path d="M100,46 L108,104 L100,162 L92,104 Z" class="sw" pathLength="1"></path><path d="M42,104 L100,96 L158,104 L100,112 Z" class="sw" pathLength="1"></path><path d="M100,46 L108,104 L92,104 Z" fill="#3B4A3F" stroke="none" class="fill"></path><circle cx="100" cy="104" r="2.4" fill="#3B4A3F" stroke="none" class="fill"></circle><text x="100" y="14" font-family="IBM Plex Mono, ui-monospace, monospace" font-size="9" letter-spacing="0.8" fill="#3B4A3F" stroke="none" text-anchor="middle" class="lbl">N</text></g></svg>