<svg xmlns="http://www.w3.org/2000/svg" viewBox="0 0 280 212" width="280" height="212"><g fill="none" stroke="#3B4A3F" stroke-width="1.4" stroke-linecap="round" stroke-linejoin="round"><line x1="95" y1="22" x2="95" y2="188" class="sw" pathLength="1"></line><line x1="185" y1="22" x2="185" y2="188" class="sw" pathLength="1"></line><line x1="95" y1="22" x2="185" y2="22" class="sw" pathLength="1"></line><line x1="95" y1="64" x2="185" y2="64" class="sw" pathLength="1"></line><line x1="95" y1="106" x2="185" y2="106" class="sw" pathLength="1"></line><line x1="95" y1="148" x2="185" y2="148" class="sw" pathLength="1"></line><line x1="95" y1="188" x2="185" y2="188" class="sw" pathLength="1"></line><line x1="95" y1="22" x2="185" y2="64" class="sw" pathLength="1"></line><line x1="185" y1="22" x2="95" y2="64" class="sw" pathLength="1"></line><line x1="95" y1="64" x2="185" y2="106" class="sw" pathLength="1"></line><line x1="185" y1="64" x2="95" y2="106" class="sw" pathLength="1"></line><line x1="95" y1="106" x2="185" y2="148" class="sw" pathLength="1"></line><line x1="185" y1="106" x2="95" y2="148" class="sw" pathLength="1"></line><line x1="95" y1="148" x2="185" y2="188" class="sw" pathLength="1"></line><line x1="185" y1="148" x2="95" y2="188" class="sw" pathLength="1"></line><line x1="95" y1="188" x2="84" y2="200" class="sw" pathLength="1"></line><line x1="185" y1="188" x2="196" y2="200" class="sw" pathLength="1"></line><line x1="95" y1="22" x2="80" y2="13" class="sw" pathLength="1"></line><line x1="185" y1="22" x2="200" y2="13" class="sw" pathLength="1"></line><circle cx="95" cy="22" r="3.2" class="sw" pathLength="1"></circle><circle cx="95" cy="64" r="3.2" class="sw" pathLength="1"></circle><circle cx="95" cy="106" r="3.2" class="sw" pathLength="1"></circle><circle cx="95" cy="148" r="3.2" class="sw" pathLength="1"></circle><circle cx="95" cy="188" r="3.2" class="sw" pathLength="1"></circle><circle cx="185" cy="22" r="3.2" class="sw" pathLength="1"></circle><circle cx="185" cy="64" r="3.2" class="sw" pathLength="1"></circle><circle cx="185" cy="106" r="3.2" class="sw" pathLength="1"></circle><circle cx="185" cy="148" r="3.2" class="sw" pathLength="1"></circle><circle cx="185" cy="188" r="3.2" class="sw" pathLength="1"></circle></g></svg>