<svg xmlns="http://www.w3.org/2000/svg" viewBox="0 0 290 210" width="290" height="210"><g fill="none" stroke="#3B4A3F" stroke-width="1.4" stroke-linecap="round" stroke-linejoin="round"><line x1="40" y1="30" x2="40" y2="180" class="sw" pathLength="1"></line><line x1="110" y1="30" x2="110" y2="180" class="sw" pathLength="1"></line><line x1="180" y1="30" x2="180" y2="180" class="sw" pathLength="1"></line><line x1="250" y1="30" x2="250" y2="180" class="sw" pathLength="1"></line><line x1="40" y1="30" x2="250" y2="30" class="sw" pathLength="1"></line><line x1="40" y1="80" x2="250" y2="80" class="sw" pathLength="1"></line><line x1="40" y1="130" x2="250" y2="130" class="sw" pathLength="1"></line><line x1="40" y1="180" x2="250" y2="180" class="sw" pathLength="1"></line><line x1="40" y1="30" x2="110" y2="80" class="sw" pathLength="1"></line><line x1="110" y1="30" x2="40" y2="80" class="sw" pathLength="1"></line><line x1="180" y1="80" x2="250" y2="130" class="sw" pathLength="1"></line><line x1="250" y1="80" x2="180" y2="130" class="sw" pathLength="1"></line><line x1="110" y1="130" x2="180" y2="180" class="sw" pathLength="1"></line><line x1="180" y1="130" x2="110" y2="180" class="sw" pathLength="1"></line><circle cx="40" cy="30" r="3.2" class="sw" pathLength="1"></circle><circle cx="40" cy="80" r="3.2" class="sw" pathLength="1"></circle><circle cx="40" cy="130" r="3.2" class="sw" pathLength="1"></circle><circle cx="40" cy="180" r="3.2" class="sw" pathLength="1"></circle><circle cx="110" cy="30" r="3.2" class="sw" pathLength="1"></circle><circle cx="110" cy="80" r="3.2" class="sw" pathLength="1"></circle><circle cx="110" cy="130" r="3.2" class="sw" pathLength="1"></circle><circle cx="110" cy="180" r="3.2" class="sw" pathLength="1"></circle><circle cx="180" cy="30" r="3.2" class="sw" pathLength="1"></circle><circle cx="180" cy="80" r="3.2" class="sw" pathLength="1"></circle><circle cx="180" cy="130" r="3.2" class="sw" pathLength="1"></circle><circle cx="180" cy="180" r="3.2" class="sw" pathLength="1"></circle><circle cx="250" cy="30" r="3.2" class="sw" pathLength="1"></circle><circle cx="250" cy="80" r="3.2" class="sw" pathLength="1"></circle><circle cx="250" cy="130" r="3.2" class="sw" pathLength="1"></circle><circle cx="250" cy="180" r="3.2" class="sw" pathLength="1"></circle></g></svg>