<svg xmlns="http://www.w3.org/2000/svg" viewBox="0 0 290 216" width="290" height="216"><g fill="none" stroke="#3B4A3F" stroke-width="1.4" stroke-linecap="round" stroke-linejoin="round"><line x1="36" y1="40" x2="36" y2="182" class="sw" pathLength="1"></line><line x1="118" y1="40" x2="118" y2="182" class="sw" pathLength="1"></line><line x1="200" y1="40" x2="200" y2="182" class="sw" pathLength="1"></line><line x1="262" y1="40" x2="262" y2="182" class="sw" pathLength="1"></line><line x1="36" y1="40" x2="262" y2="40" class="sw" pathLength="1"></line><line x1="36" y1="112" x2="262" y2="112" class="sw" pathLength="1"></line><line x1="36" y1="182" x2="262" y2="182" class="sw" pathLength="1"></line><line x1="210" y1="44" x2="203" y2="52" class="sw" pathLength="1"></line><line x1="219" y1="44" x2="203" y2="61" class="sw" pathLength="1"></line><line x1="228" y1="44" x2="203" y2="70" class="sw" pathLength="1"></line><line x1="237" y1="44" x2="203" y2="79" class="sw" pathLength="1"></line><line x1="246" y1="44" x2="203" y2="88" class="sw" pathLength="1"></line><line x1="255" y1="44" x2="203" y2="97" class="sw" pathLength="1"></line><line x1="118" y1="112" x2="200" y2="182" class="sw" pathLength="1"></line><circle cx="36" cy="40" r="3.2" class="sw" pathLength="1"></circle><circle cx="36" cy="112" r="3.2" class="sw" pathLength="1"></circle><circle cx="36" cy="182" r="3.2" class="sw" pathLength="1"></circle><circle cx="118" cy="40" r="3.2" class="sw" pathLength="1"></circle><circle cx="118" cy="112" r="3.2" class="sw" pathLength="1"></circle><circle cx="118" cy="182" r="3.2" class="sw" pathLength="1"></circle><circle cx="200" cy="40" r="3.2" class="sw" pathLength="1"></circle><circle cx="200" cy="112" r="3.2" class="sw" pathLength="1"></circle><circle cx="200" cy="182" r="3.2" class="sw" pathLength="1"></circle><circle cx="262" cy="40" r="3.2" class="sw" pathLength="1"></circle><circle cx="262" cy="112" r="3.2" class="sw" pathLength="1"></circle><circle cx="262" cy="182" r="3.2" class="sw" pathLength="1"></circle><line x1="36" y1="182" x2="36" y2="206" class="sw" pathLength="1"></line><line x1="200" y1="182" x2="200" y2="206" class="sw" pathLength="1"></line><line x1="44" y1="198" x2="192" y2="198" class="sw" pathLength="1"></line><polygon points="44,198 51,194.15 51,201.85" fill="#3B4A3F" stroke="none" class="fill"></polygon><polygon points="192,198 185,194.15 185,201.85" fill="#3B4A3F" stroke="none" class="fill"></polygon><text x="118" y="194" font-family="IBM Plex Mono, ui-monospace, monospace" font-size="8" letter-spacing="0.8" fill="#3B4A3F" stroke="none" text-anchor="middle" class="lbl">2 400</text></g></svg>